<?xml version="1.0" encoding="utf-8"?>
<!-- Generator: Adobe Illustrator 19.2.0, SVG Export Plug-In . SVG Version: 6.00 Build 0)  -->
<svg version="1.1" id="Layer_1" xmlns="http://www.w3.org/2000/svg" xmlns:xlink="http://www.w3.org/1999/xlink" x="0px" y="0px"
	 viewBox="0 0 96 96" style="enable-background:new 0 0 96 96;" xml:space="preserve">
<style type="text/css">
	.st0{fill:none;stroke:#000000;stroke-width:2;stroke-miterlimit:10;}
	.st1{fill:#010101;}
</style>
<path class="st0" d="M-1.6,49.4"/>
<path class="st0" d="M48,48"/>
<g>
	<g>
		<path d="M48,85.6c-20.7,0-37.6-16.8-37.6-37.6S27.2,10.4,48,10.4S85.6,27.2,85.6,48S68.8,85.6,48,85.6z M48,13.6
			C29,13.6,13.6,29,13.6,48S29,82.4,48,82.4S82.4,67,82.4,48C82.4,29.1,67.1,13.6,48,13.6z"/>
	</g>
	<g>
		<g>
			<circle class="st1" cx="48" cy="32.4" r="3.1"/>
		</g>
		<g>
			<polygon points="49.7,65.3 46.5,65.3 46.5,44.9 41.9,44.9 41.9,41.8 49.7,41.8 			"/>
		</g>
		<g>
			<rect x="41.9" y="63.7" width="12.5" height="3.1"/>
		</g>
	</g>
</g>
</svg>
